<?xml version="1.0" encoding="UTF-8"?>
<svg width="24px" height="24px" viewBox="0 0 24 24" version="1.1" xmlns="http://www.w3.org/2000/svg" xmlns:xlink="http://www.w3.org/1999/xlink">
    <!-- Generator: sketchtool 53.2 (72643) - https://sketchapp.com -->
    <title>B4E4C605-B6F1-452F-AADE-09B0CE71F9BA@vector</title>
    <desc>Created with sketchtool.</desc>
    <g id="Prototype" stroke="none" stroke-width="1" fill="none" fill-rule="evenodd">
        <g id="Mobile-Menu" transform="translate(-327.000000, -20.000000)">
            <g id="Page/Header">
                <g id="Group-3" transform="translate(327.000000, 20.000000)">
                    <rect id="Rectangle" fill-opacity="0" fill="#FFFFFF" x="0" y="0" width="24" height="24"></rect>
                    <path d="M19.5665818,17.0150606 L14.5490501,11.9999878 L19.5628934,6.98245604 C20.1416123,6.40613454 20.1416123,5.47922516 19.565297,4.90050617 L19.0994448,4.43345524 C18.8256936,4.15249928 18.4510755,4 18.0572711,4 L18.0548675,4 C17.6610632,4 17.2912338,4.15488755 17.0150913,4.43222575 L11.998789,9.45221647 L6.98125729,4.43837318 C6.40613454,3.86205169 5.48042391,3.85965419 4.90170492,4.43597261 L4.43465399,4.89822855 C4.15369803,5.17438337 4,5.54899541 4,5.94160098 C4,6.33663478 4.15488755,6.70763214 4.43222575,6.98497341 L9.45221647,12.0012757 L4.43714369,17.0188044 C3.8584247,17.5951258 3.8584247,18.5220383 4.43474312,19.101953 L4.90059531,19.5678052 C5.17675013,19.8487611 5.55016342,20.0012604 5.94396774,20.0012604 C6.33537456,20.0012604 6.7099989,19.8451741 6.98614142,19.5690346 L12.0012142,14.5502765 L17.0175165,19.5631977 C17.3020748,19.8501566 17.6802708,19.9954234 18.0596901,19.9954234 C18.4355132,19.9954234 18.8113056,19.8525449 19.0994663,19.5655952 L19.5653185,19.1009417 C19.8474763,18.8271905 19.9999725,18.4525724 19.9999725,18.058768 C20.0023731,17.6649637 19.8474886,17.2927369 19.5701443,17.0153956 L19.5665818,17.0150606 Z" id="Fill-1" fill="#24BAA0"></path>
                </g>
            </g>
        </g>
    </g>
</svg>